<svg xmlns="http://www.w3.org/2000/svg" viewBox="0 0 256 256" fill="none">
  <defs><linearGradient id="bg" x1="16" y1="18" x2="236" y2="236" gradientUnits="userSpaceOnUse"><stop stop-color="#DB2777"/><stop offset="1" stop-color="#1F2937"/></linearGradient><linearGradient id="coat" x1="60" y1="170" x2="194" y2="238" gradientUnits="userSpaceOnUse"><stop stop-color="#831843"/><stop offset="1" stop-color="#C026D3"/></linearGradient></defs>
  <rect width="256" height="256" rx="42" fill="url(#bg)"/><circle cx="208" cy="42" r="32" fill="#fff" opacity=".12"/><circle cx="50" cy="214" r="34" fill="#fff" opacity=".08"/>
  <ellipse cx="128" cy="220" rx="92" ry="56" fill="url(#coat)"/><rect x="112" y="148" width="32" height="42" rx="14" fill="#F0C19F"/><circle cx="128" cy="108" r="50" fill="#F0C19F"/>
  <path d="M80 108c0-32 20-55 50-55 29 0 49 20 49 50-10-5-18-7-28-7-24 0-40-7-57-21-8 8-12 19-14 33Z" fill="#3A1F32"/><circle cx="111" cy="113" r="4.5" fill="#1F2937"/><circle cx="145" cy="113" r="4.5" fill="#1F2937"/>
  <path d="M114 134c8 7 20 7 28 0" stroke="#A96C57" stroke-linecap="round" stroke-width="4"/><path d="M98 166h60l-16 54h-28l-16-54Z" fill="#FCE7F3"/><path d="m184 136 8 14-15 0 7-14Zm-10 18 10 17 10-17" fill="#F9A8D4"/>
</svg>
