<svg xmlns="http://www.w3.org/2000/svg" viewBox="0 0 256 256" fill="none">
  <defs><linearGradient id="bg" x1="18" y1="22" x2="236" y2="234" gradientUnits="userSpaceOnUse"><stop stop-color="#0891B2"/><stop offset="1" stop-color="#7E22CE"/></linearGradient><linearGradient id="coat" x1="60" y1="170" x2="192" y2="238" gradientUnits="userSpaceOnUse"><stop stop-color="#155E75"/><stop offset="1" stop-color="#6B21A8"/></linearGradient></defs>
  <rect width="256" height="256" rx="42" fill="url(#bg)"/><circle cx="206" cy="44" r="31" fill="#fff" opacity=".12"/><circle cx="54" cy="214" r="34" fill="#fff" opacity=".08"/>
  <ellipse cx="128" cy="220" rx="92" ry="56" fill="url(#coat)"/><rect x="112" y="148" width="32" height="42" rx="14" fill="#EBB894"/><circle cx="128" cy="108" r="50" fill="#EBB894"/>
  <path d="M80 108c0-31 18-55 48-55 31 0 50 21 50 48-10-4-18-5-29-5-23 0-39-7-56-20-8 9-11 19-13 32Z" fill="#283449"/><circle cx="110" cy="113" r="4.5" fill="#1F2937"/><circle cx="146" cy="113" r="4.5" fill="#1F2937"/>
  <path d="M116 133c6 6 18 6 24 0" stroke="#A86C57" stroke-linecap="round" stroke-width="4"/><path d="M98 166h60l-16 54h-28l-16-54Z" fill="#E0F2FE"/><rect x="174" y="136" width="24" height="22" rx="5" fill="#F3E8FF"/><path d="M181 132v7m10-7v7m-13 8h16" stroke="#8B5CF6" stroke-linecap="round" stroke-width="3"/>
</svg>
