<svg xmlns="http://www.w3.org/2000/svg" viewBox="0 0 256 256" fill="none">
  <defs><linearGradient id="bg" x1="16" y1="18" x2="236" y2="236" gradientUnits="userSpaceOnUse"><stop stop-color="#BE185D"/><stop offset="1" stop-color="#4338CA"/></linearGradient><linearGradient id="coat" x1="60" y1="170" x2="192" y2="238" gradientUnits="userSpaceOnUse"><stop stop-color="#7C2D92"/><stop offset="1" stop-color="#DB2777"/></linearGradient></defs>
  <rect width="256" height="256" rx="42" fill="url(#bg)"/><circle cx="204" cy="46" r="30" fill="#fff" opacity=".12"/><circle cx="54" cy="214" r="34" fill="#fff" opacity=".08"/>
  <ellipse cx="128" cy="220" rx="92" ry="56" fill="url(#coat)"/><rect x="112" y="148" width="32" height="42" rx="14" fill="#F0C3A3"/><circle cx="128" cy="108" r="50" fill="#F0C3A3"/>
  <path d="M80 107c0-31 20-54 49-54 28 0 48 18 49 45-10-3-18-4-28-4-23 0-39-6-56-20-8 10-12 21-14 33Z" fill="#3B1D4A"/><circle cx="111" cy="113" r="4.5" fill="#1F2937"/><circle cx="145" cy="113" r="4.5" fill="#1F2937"/>
  <path d="M114 134c7 7 21 7 28 0" stroke="#A96C58" stroke-linecap="round" stroke-width="4"/><path d="M98 166h60l-16 54h-28l-16-54Z" fill="#FAE8FF"/><path d="M170 144c0-6 5-10 11-10 5 0 9 3 10 8 5 1 9 5 9 10 0 6-5 11-11 11h-17c-6 0-11-5-11-11s4-11 9-11Z" fill="#FCE7F3"/>
</svg>
