<svg xmlns="http://www.w3.org/2000/svg" viewBox="0 0 256 256" fill="none">
  <defs><linearGradient id="bg" x1="16" y1="24" x2="238" y2="234" gradientUnits="userSpaceOnUse"><stop stop-color="#7C2D12"/><stop offset="1" stop-color="#1E293B"/></linearGradient><linearGradient id="coat" x1="60" y1="170" x2="194" y2="240" gradientUnits="userSpaceOnUse"><stop stop-color="#5B2C15"/><stop offset="1" stop-color="#9A3412"/></linearGradient></defs>
  <rect width="256" height="256" rx="42" fill="url(#bg)"/><circle cx="208" cy="42" r="32" fill="#fff" opacity=".1"/><circle cx="48" cy="214" r="34" fill="#fff" opacity=".08"/>
  <ellipse cx="128" cy="220" rx="92" ry="56" fill="url(#coat)"/><rect x="112" y="148" width="32" height="42" rx="14" fill="#E8B58F"/><circle cx="128" cy="108" r="50" fill="#E8B58F"/>
  <path d="M81 110c0-31 19-56 48-56 30 0 50 21 50 50-10-5-18-7-28-7-24 0-40-7-57-21-7 10-11 22-13 34Z" fill="#3F2B23"/><circle cx="110" cy="113" r="4.5" fill="#1F2937"/><circle cx="146" cy="113" r="4.5" fill="#1F2937"/>
  <path d="M116 133c6 6 18 6 24 0" stroke="#A96C57" stroke-linecap="round" stroke-width="4"/><path d="M100 166h56l-14 54h-28l-14-54Z" fill="#FDEDDC"/><path d="m177 141-13 24 21-9-8-15Z" fill="#FED7AA"/>
</svg>
