<svg xmlns="http://www.w3.org/2000/svg" viewBox="0 0 256 256" fill="none">
  <defs><linearGradient id="bg" x1="20" y1="22" x2="232" y2="236" gradientUnits="userSpaceOnUse"><stop stop-color="#111827"/><stop offset="1" stop-color="#2563EB"/></linearGradient><linearGradient id="coat" x1="60" y1="168" x2="192" y2="240" gradientUnits="userSpaceOnUse"><stop stop-color="#0F172A"/><stop offset="1" stop-color="#1D4ED8"/></linearGradient></defs>
  <rect width="256" height="256" rx="42" fill="url(#bg)"/><circle cx="208" cy="44" r="30" fill="#fff" opacity=".1"/><path d="M28 216h74c-14-24-34-31-74-24v24Z" fill="#fff" opacity=".08"/>
  <ellipse cx="128" cy="220" rx="92" ry="56" fill="url(#coat)"/><rect x="112" y="148" width="32" height="42" rx="14" fill="#E7B58E"/><circle cx="128" cy="108" r="50" fill="#E7B58E"/>
  <path d="M80 108c0-34 20-56 50-56 32 0 49 22 49 53-8-4-17-6-27-6-24 0-41-7-56-20-8 8-14 18-16 29Z" fill="#1F2937"/><circle cx="110" cy="113" r="4.5" fill="#F3F4F6"/><circle cx="146" cy="113" r="4.5" fill="#F3F4F6"/>
  <path d="M114 133c8 6 20 6 28 0" stroke="#A46853" stroke-linecap="round" stroke-width="4"/><path d="M98 166h60l-14 54h-32l-14-54Z" fill="#DBEAFE"/><path d="M92 186h72" stroke="#60A5FA" stroke-dasharray="4 6" stroke-linecap="round" stroke-width="4"/>
</svg>
