<svg xmlns="http://www.w3.org/2000/svg" viewBox="0 0 256 256" fill="none">
  <defs>
    <linearGradient id="bg" x1="30" y1="16" x2="224" y2="236" gradientUnits="userSpaceOnUse"><stop stop-color="#5A1E5C"/><stop offset="1" stop-color="#FF7B72"/></linearGradient>
    <linearGradient id="coat" x1="64" y1="166" x2="194" y2="240" gradientUnits="userSpaceOnUse"><stop stop-color="#562B7C"/><stop offset="1" stop-color="#9333EA"/></linearGradient>
  </defs>
  <rect width="256" height="256" rx="42" fill="url(#bg)"/>
  <circle cx="208" cy="46" r="34" fill="#fff" opacity=".12"/><circle cx="58" cy="36" r="18" fill="#fff" opacity=".08"/>
  <ellipse cx="128" cy="220" rx="94" ry="58" fill="url(#coat)"/><rect x="112" y="148" width="32" height="42" rx="14" fill="#F0C1A0"/>
  <circle cx="128" cy="108" r="50" fill="#F0C1A0"/><path d="M82 102c0-28 20-50 48-50 30 0 50 20 50 50 0 2 0 5-1 7-11-9-18-10-31-10-21 0-34-7-49-18-8 8-14 18-17 30V102Z" fill="#40203B"/>
  <circle cx="111" cy="114" r="4.5" fill="#1F2937"/><circle cx="145" cy="114" r="4.5" fill="#1F2937"/><path d="M114 134c7 6 21 6 28 0" stroke="#A96D5B" stroke-linecap="round" stroke-width="4"/>
  <path d="M98 166c11-9 24-14 30-14s20 5 30 14l-18 54h-24l-18-54Z" fill="#F6D4FF"/><circle cx="182" cy="136" r="8" fill="#FFD166" opacity=".85"/>
</svg>
