<svg xmlns="http://www.w3.org/2000/svg" viewBox="0 0 256 256" fill="none">
  <defs><linearGradient id="bg" x1="20" y1="18" x2="230" y2="236" gradientUnits="userSpaceOnUse"><stop stop-color="#A16207"/><stop offset="1" stop-color="#0F172A"/></linearGradient><linearGradient id="coat" x1="60" y1="172" x2="192" y2="238" gradientUnits="userSpaceOnUse"><stop stop-color="#7C5C14"/><stop offset="1" stop-color="#334155"/></linearGradient></defs>
  <rect width="256" height="256" rx="42" fill="url(#bg)"/><circle cx="208" cy="44" r="30" fill="#fff" opacity=".12"/><circle cx="52" cy="216" r="32" fill="#fff" opacity=".08"/>
  <ellipse cx="128" cy="220" rx="92" ry="56" fill="url(#coat)"/><rect x="112" y="148" width="32" height="42" rx="14" fill="#E8B58D"/><circle cx="128" cy="108" r="50" fill="#E8B58D"/>
  <path d="M80 109c0-31 19-55 49-55 31 0 49 21 49 50-8-5-16-7-28-7-23 0-40-7-55-20-8 8-13 18-15 32Z" fill="#3A3127"/><circle cx="111" cy="113" r="4.5" fill="#1F2937"/><circle cx="145" cy="113" r="4.5" fill="#1F2937"/>
  <path d="M116 133c6 6 18 6 24 0" stroke="#A86A55" stroke-linecap="round" stroke-width="4"/><path d="M98 166h60l-15 54h-30l-15-54Z" fill="#FEF3C7"/><rect x="175" y="137" width="22" height="30" rx="3" fill="#FFF7D6"/><path d="M181 144h10m-10 8h10m-10 8h10" stroke="#D1A129" stroke-linecap="round" stroke-width="2.5"/>
</svg>
