<svg xmlns="http://www.w3.org/2000/svg" viewBox="0 0 256 256" fill="none">
  <defs>
    <linearGradient id="bg" x1="24" y1="20" x2="224" y2="236" gradientUnits="userSpaceOnUse"><stop stop-color="#0F3D3E"/><stop offset="1" stop-color="#68B0AB"/></linearGradient>
    <linearGradient id="coat" x1="58" y1="170" x2="193" y2="240" gradientUnits="userSpaceOnUse"><stop stop-color="#17384A"/><stop offset="1" stop-color="#274C77"/></linearGradient>
  </defs>
  <rect width="256" height="256" rx="42" fill="url(#bg)"/>
  <circle cx="202" cy="42" r="30" fill="#fff" opacity=".12"/><circle cx="46" cy="214" r="36" fill="#fff" opacity=".08"/>
  <ellipse cx="128" cy="220" rx="92" ry="56" fill="url(#coat)"/><rect x="112" y="148" width="32" height="42" rx="14" fill="#E7B58E"/>
  <circle cx="128" cy="108" r="50" fill="#E7B58E"/><path d="M80 108c0-33 22-54 53-54 29 0 50 18 50 44v10c-8-8-18-12-31-12-18 0-33-1-46-10-8 12-15 18-26 22V108Z" fill="#16324F"/>
  <circle cx="111" cy="113" r="4.5" fill="#1F2937"/><circle cx="145" cy="113" r="4.5" fill="#1F2937"/><path d="M115 133c6 7 20 7 26 0" stroke="#A56C57" stroke-linecap="round" stroke-width="4"/>
  <path d="M118 175h20l10 46h-40l10-46Z" fill="#D9E6F2"/><path d="M119 157h18l8 17h-34l8-17Z" fill="#F2F5F7"/>
</svg>
