<svg xmlns="http://www.w3.org/2000/svg" viewBox="0 0 256 256" fill="none">
  <defs><linearGradient id="bg" x1="18" y1="24" x2="228" y2="232" gradientUnits="userSpaceOnUse"><stop stop-color="#1D3557"/><stop offset="1" stop-color="#70E1C8"/></linearGradient><linearGradient id="coat" x1="60" y1="170" x2="192" y2="236" gradientUnits="userSpaceOnUse"><stop stop-color="#223B54"/><stop offset="1" stop-color="#2A9D8F"/></linearGradient></defs>
  <rect width="256" height="256" rx="42" fill="url(#bg)"/><circle cx="208" cy="44" r="32" fill="#fff" opacity=".12"/><circle cx="54" cy="38" r="16" fill="#fff" opacity=".08"/>
  <ellipse cx="128" cy="220" rx="92" ry="56" fill="url(#coat)"/><rect x="112" y="148" width="32" height="42" rx="14" fill="#E8B791"/><circle cx="128" cy="108" r="50" fill="#E8B791"/>
  <path d="M80 108c0-32 20-55 50-55 31 0 49 20 49 50-10-7-20-10-34-10-20 0-34-6-49-18-7 8-13 18-16 33Z" fill="#213547"/><circle cx="110" cy="113" r="4.5" fill="#1F2937"/><circle cx="146" cy="113" r="4.5" fill="#1F2937"/>
  <path d="M115 133c7 7 19 7 26 0" stroke="#A86D58" stroke-linecap="round" stroke-width="4"/><path d="M98 166h60l-13 54h-34l-13-54Z" fill="#D8FFF4"/><path d="M92 150h72" stroke="#F3FFFC" stroke-linecap="round" stroke-width="4"/><path d="M176 138h18" stroke="#F3FFFC" stroke-linecap="round" stroke-width="4"/>
</svg>
