<svg xmlns="http://www.w3.org/2000/svg" viewBox="0 0 256 256" fill="none">
  <defs><linearGradient id="bg" x1="24" y1="18" x2="232" y2="236" gradientUnits="userSpaceOnUse"><stop stop-color="#0F6CBD"/><stop offset="1" stop-color="#14213D"/></linearGradient><linearGradient id="coat" x1="60" y1="170" x2="190" y2="240" gradientUnits="userSpaceOnUse"><stop stop-color="#163A5F"/><stop offset="1" stop-color="#2563EB"/></linearGradient></defs>
  <rect width="256" height="256" rx="42" fill="url(#bg)"/><circle cx="206" cy="46" r="32" fill="#fff" opacity=".1"/><path d="M30 212c24-22 50-28 73-18 3 7 6 12 12 18H30Z" fill="#fff" opacity=".08"/>
  <ellipse cx="128" cy="220" rx="92" ry="56" fill="url(#coat)"/><rect x="112" y="148" width="32" height="42" rx="14" fill="#E8B58E"/><circle cx="128" cy="108" r="50" fill="#E8B58E"/>
  <path d="M81 105c0-30 18-52 47-52 30 0 49 20 49 49v10c-8-7-16-12-29-12-22 0-37-7-52-20-8 8-13 14-15 25Z" fill="#2B324B"/><circle cx="111" cy="114" r="4.5" fill="#1F2937"/><circle cx="145" cy="114" r="4.5" fill="#1F2937"/>
  <path d="M115 134c7 7 19 7 26 0" stroke="#A66D57" stroke-linecap="round" stroke-width="4"/><path d="M93 107a14 14 0 0 0-8 13v9" stroke="#A7E3FF" stroke-linecap="round" stroke-width="6"/><path d="M163 107a14 14 0 0 1 8 13v9" stroke="#A7E3FF" stroke-linecap="round" stroke-width="6"/><path d="M90 132h-10a7 7 0 0 0 0 14h10" stroke="#A7E3FF" stroke-linecap="round" stroke-width="6"/>
</svg>
