<svg xmlns="http://www.w3.org/2000/svg" viewBox="0 0 256 256" fill="none">
  <defs><linearGradient id="bg" x1="18" y1="20" x2="232" y2="236" gradientUnits="userSpaceOnUse"><stop stop-color="#0F766E"/><stop offset="1" stop-color="#84CC16"/></linearGradient><linearGradient id="coat" x1="60" y1="170" x2="192" y2="238" gradientUnits="userSpaceOnUse"><stop stop-color="#115E59"/><stop offset="1" stop-color="#4D7C0F"/></linearGradient></defs>
  <rect width="256" height="256" rx="42" fill="url(#bg)"/><circle cx="208" cy="44" r="31" fill="#fff" opacity=".12"/><circle cx="52" cy="214" r="34" fill="#fff" opacity=".08"/>
  <ellipse cx="128" cy="220" rx="92" ry="56" fill="url(#coat)"/><rect x="112" y="148" width="32" height="42" rx="14" fill="#E8B48E"/><circle cx="128" cy="108" r="50" fill="#E8B48E"/>
  <path d="M80 108c0-30 19-53 48-53 29 0 48 18 50 45-9-4-16-5-26-5-24 0-42-7-56-21-8 9-13 20-16 34Z" fill="#264653"/><circle cx="111" cy="113" r="4.5" fill="#1F2937"/><circle cx="145" cy="113" r="4.5" fill="#1F2937"/>
  <path d="M115 133c7 7 19 7 26 0" stroke="#A66D57" stroke-linecap="round" stroke-width="4"/><path d="M98 166h60l-16 54h-28l-16-54Z" fill="#ECFCCB"/><circle cx="182" cy="144" r="9" fill="#F7FEE7"/><circle cx="196" cy="152" r="7" fill="#F7FEE7"/>
</svg>
