<svg xmlns="http://www.w3.org/2000/svg" viewBox="0 0 256 256" fill="none">
  <defs><linearGradient id="bg" x1="24" y1="18" x2="232" y2="236" gradientUnits="userSpaceOnUse"><stop stop-color="#7E57C2"/><stop offset="1" stop-color="#2D3142"/></linearGradient><linearGradient id="coat" x1="60" y1="170" x2="192" y2="238" gradientUnits="userSpaceOnUse"><stop stop-color="#4B3F72"/><stop offset="1" stop-color="#8D6FD1"/></linearGradient></defs>
  <rect width="256" height="256" rx="42" fill="url(#bg)"/><circle cx="204" cy="44" r="30" fill="#fff" opacity=".12"/><circle cx="60" cy="214" r="28" fill="#fff" opacity=".08"/>
  <ellipse cx="128" cy="220" rx="92" ry="56" fill="url(#coat)"/><rect x="112" y="148" width="32" height="42" rx="14" fill="#EFC0A2"/><circle cx="128" cy="108" r="50" fill="#EFC0A2"/>
  <path d="M82 111c0-32 19-58 48-58 30 0 50 24 50 54-11-5-18-6-27-6-25 0-42-7-59-24-7 10-11 21-12 34Z" fill="#2D213F"/><circle cx="110" cy="114" r="4.5" fill="#1F2937"/><circle cx="146" cy="114" r="4.5" fill="#1F2937"/>
  <path d="M114 134c8 7 20 7 28 0" stroke="#A76E59" stroke-linecap="round" stroke-width="4"/><path d="M98 166h60l-16 54h-28l-16-54Z" fill="#F2E8FF"/><path d="m177 137 10 10-18 6 8-16Z" fill="#FFE082"/>
</svg>
